<svg width="32" height="33" viewBox="0 0 32 33" fill="none" xmlns="http://www.w3.org/2000/svg">
<g clip-path="url(#clip0_17_15)">
<path d="M31.9889 16.4714C31.9889 17.5026 31.1556 18.3104 30.2111 18.3104H28.4333L28.4722 27.4886C28.4722 27.6432 28.4611 27.7979 28.4444 27.9526V28.875C28.4444 30.1412 27.45 31.1667 26.2222 31.1667H25.3333C25.2722 31.1667 25.2111 31.1667 25.15 31.1609C25.0722 31.1667 24.9944 31.1667 24.9167 31.1667H23.1111H21.7778C20.55 31.1667 19.5556 30.1412 19.5556 28.875V27.5V23.8333C19.5556 22.8193 18.7611 22 17.7778 22H14.2222C13.2389 22 12.4444 22.8193 12.4444 23.8333V27.5V28.875C12.4444 30.1412 11.45 31.1667 10.2222 31.1667H8.88889H7.11667C7.03333 31.1667 6.95 31.1609 6.86667 31.1552C6.8 31.1609 6.73333 31.1667 6.66667 31.1667H5.77778C4.55 31.1667 3.55556 30.1412 3.55556 28.875V22.4583C3.55556 22.4068 3.55556 22.3495 3.56111 22.2979V18.3104H1.77778C0.777778 18.3104 0 17.5083 0 16.4714C0 15.9557 0.166667 15.4974 0.555556 15.0964L14.8 2.29168C15.1889 1.89064 15.6333 1.83334 16.0222 1.83334C16.4111 1.83334 16.8556 1.94793 17.1889 2.23439L31.3778 15.0964C31.8222 15.4974 32.0444 15.9557 31.9889 16.4714Z" fill="#FBD13C"/>
</g>
<defs>
<clipPath id="clip0_17_15">
<rect width="32" height="33" fill="white"/>
</clipPath>
</defs>
</svg>
