<svg width="32" height="32" viewBox="0 0 32 32" fill="none" xmlns="http://www.w3.org/2000/svg">
<g clip-path="url(#clip0_17_18)">
<path d="M0 5.33333C0 4.59444 0.594444 4 1.33333 4H3.86111C5.08333 4 6.16667 4.71111 6.67222 5.77778H29.5056C30.9667 5.77778 32.0333 7.16667 31.65 8.57778L29.3722 17.0389C28.9 18.7833 27.3167 20 25.5111 20H9.48333L9.78333 21.5833C9.90556 22.2111 10.4556 22.6667 11.0944 22.6667H27.1111C27.85 22.6667 28.4444 23.2611 28.4444 24C28.4444 24.7389 27.85 25.3333 27.1111 25.3333H11.0944C9.17222 25.3333 7.52222 23.9667 7.16667 22.0833L4.3 7.02778C4.26111 6.81667 4.07778 6.66667 3.86111 6.66667H1.33333C0.594444 6.66667 0 6.07222 0 5.33333ZM7.11111 29.7778C7.11111 29.4276 7.18009 29.0808 7.3141 28.7573C7.44811 28.4338 7.64454 28.1398 7.89216 27.8922C8.13978 27.6445 8.43375 27.4481 8.75729 27.3141C9.08082 27.1801 9.42759 27.1111 9.77778 27.1111C10.128 27.1111 10.4747 27.1801 10.7983 27.3141C11.1218 27.4481 11.4158 27.6445 11.6634 27.8922C11.911 28.1398 12.1074 28.4338 12.2415 28.7573C12.3755 29.0808 12.4444 29.4276 12.4444 29.7778C12.4444 30.128 12.3755 30.4747 12.2415 30.7983C12.1074 31.1218 11.911 31.4158 11.6634 31.6634C11.4158 31.911 11.1218 32.1074 10.7983 32.2415C10.4747 32.3755 10.128 32.4444 9.77778 32.4444C9.42759 32.4444 9.08082 32.3755 8.75729 32.2415C8.43375 32.1074 8.13978 31.911 7.89216 31.6634C7.64454 31.4158 7.44811 31.1218 7.3141 30.7983C7.18009 30.4747 7.11111 30.128 7.11111 29.7778ZM25.7778 27.1111C26.485 27.1111 27.1633 27.3921 27.6634 27.8922C28.1635 28.3923 28.4444 29.0705 28.4444 29.7778C28.4444 30.485 28.1635 31.1633 27.6634 31.6634C27.1633 32.1635 26.485 32.4444 25.7778 32.4444C25.0705 32.4444 24.3923 32.1635 23.8922 31.6634C23.3921 31.1633 23.1111 30.485 23.1111 29.7778C23.1111 29.0705 23.3921 28.3923 23.8922 27.8922C24.3923 27.3921 25.0705 27.1111 25.7778 27.1111Z" fill="#C2C2C2"/>
</g>
<defs>
<clipPath id="clip0_17_18">
<rect width="32" height="32" fill="white"/>
</clipPath>
</defs>
</svg>
