<svg width="32" height="32" viewBox="0 0 32 32" fill="none" xmlns="http://www.w3.org/2000/svg">
<g clip-path="url(#clip0_17_24)">
<path d="M16 18C18.3869 18 20.6761 17.0518 22.364 15.364C24.0518 13.6761 25 11.3869 25 9C25 6.61305 24.0518 4.32387 22.364 2.63604C20.6761 0.948212 18.3869 0 16 0C13.6131 0 11.3239 0.948212 9.63604 2.63604C7.94821 4.32387 7 6.61305 7 9C7 11.3869 7.94821 13.6761 9.63604 15.364C11.3239 17.0518 13.6131 18 16 18ZM10.0813 20C4.5125 20 0 24.5125 0 30.0812C0 31.1437 0.8625 32 1.91875 32H30.0812C31.1437 32 32 31.1375 32 30.0812C32 24.5125 27.4875 20 21.9188 20H10.0813Z" fill="#C2C2C2"/>
</g>
<defs>
<clipPath id="clip0_17_24">
<rect width="32" height="32" fill="white"/>
</clipPath>
</defs>
</svg>
