<svg width="28" height="32" viewBox="0 0 28 32" fill="none" xmlns="http://www.w3.org/2000/svg">
<path d="M9.95625 0.339079C10.4438 -0.117171 11.2 -0.110921 11.6875 0.345329C13.4125 1.96408 15.0313 3.70783 16.5438 5.59533C17.2313 4.69533 18.0125 3.71408 18.8563 2.91408C19.35 2.45158 20.1125 2.45158 20.6063 2.92033C22.7688 4.98283 24.6 7.70783 25.8875 10.2953C27.1563 12.8453 28 15.4516 28 17.2891C28 25.2641 21.7625 32.0016 14 32.0016C6.15 32.0016 0 25.2578 0 17.2828C0 14.8828 1.1125 11.9516 2.8375 9.05158C4.58125 6.10783 7.04375 3.03908 9.95625 0.339079ZM14.1062 26.0016C15.6875 26.0016 17.0875 25.5641 18.4062 24.6891C21.0375 22.8516 21.7438 19.1766 20.1625 16.2891C19.8813 15.7266 19.1625 15.6891 18.7563 16.1641L17.1812 17.9953C16.7687 18.4703 16.025 18.4578 15.6375 17.9641C14.6062 16.6516 12.7625 14.3078 11.7125 12.9766C11.3187 12.4766 10.5687 12.4703 10.1687 12.9703C8.05625 15.6266 6.99375 17.3016 6.99375 19.1828C7 23.4641 10.1625 26.0016 14.1062 26.0016Z" fill="#FBD13C"/>
</svg>
