<svg width="30" height="29" viewBox="0 0 30 29" fill="none" xmlns="http://www.w3.org/2000/svg">
<path d="M16.2642 1C15.9698 0.388889 15.3476 0 14.6642 0C13.9809 0 13.3642 0.388889 13.0642 1L9.49202 8.35L1.51425 9.52778C0.84758 9.62778 0.292025 10.0944 0.0864692 10.7333C-0.119086 11.3722 0.0475801 12.0778 0.525358 12.55L6.31425 18.2778L4.94758 26.3722C4.83647 27.0389 5.11425 27.7167 5.66425 28.1111C6.21425 28.5056 6.94202 28.5556 7.54202 28.2389L14.6698 24.4333L21.7976 28.2389C22.3976 28.5556 23.1254 28.5111 23.6754 28.1111C24.2254 27.7111 24.5031 27.0389 24.392 26.3722L23.0198 18.2778L28.8087 12.55C29.2865 12.0778 29.4587 11.3722 29.2476 10.7333C29.0365 10.0944 28.4865 9.62778 27.8198 9.52778L19.8365 8.35L16.2642 1Z" fill="#FBD13C"/>
</svg>
